<?xml version="1.0" standalone="no"?>
<!DOCTYPE svg PUBLIC "-//W3C//DTD SVG 20010904//EN"
 "http://www.w3.org/TR/2001/REC-SVG-20010904/DTD/svg10.dtd">
<svg version="1.0" xmlns="http://www.w3.org/2000/svg"
 width="160.000000pt" height="50.000000pt" viewBox="0 0 160.000000 50.000000"
 preserveAspectRatio="xMidYMid meet">

<g transform="translate(0.000000,50.000000) scale(0.100000,-0.100000)"
fill="#000000" stroke="none">
<path d="M503 284 c-4 -11 2 -23 17 -34 24 -18 19 -46 -6 -36 -8 3 -14 1 -14
-4 0 -16 36 -11 51 6 12 14 9 20 -16 40 -21 17 -25 24 -15 28 8 2 22 7 30 9 8
3 2 6 -13 6 -17 1 -30 -5 -34 -15z"/>
<path d="M993 250 c0 -30 2 -43 4 -27 3 21 10 27 29 27 19 0 24 -5 24 -25 0
-14 5 -25 10 -25 6 0 10 23 10 50 0 28 -4 50 -10 50 -5 0 -10 -9 -10 -20 0
-30 -47 -28 -53 3 -2 12 -4 -3 -4 -33z"/>
<path d="M586 283 c-18 -19 -1 -83 22 -83 12 0 13 3 4 12 -16 16 -16 55 0 60
8 3 6 6 -4 10 -9 4 -19 4 -22 1z"/>
<path d="M369 260 c-3 -18 -10 -25 -27 -24 -21 1 -21 -1 -7 -15 13 -14 17 -14
31 1 9 8 14 26 12 39 l-4 24 -5 -25z"/>
<path d="M651 235 c2 -31 3 -34 6 -12 3 16 11 31 19 34 21 8 17 19 -6 19 -17
0 -20 -6 -19 -41z"/>
<path d="M723 273 c-18 -7 -16 -48 3 -64 31 -26 70 25 44 56 -13 15 -25 17
-47 8z m37 -33 c0 -24 -20 -37 -30 -19 -10 16 7 52 21 44 5 -4 9 -15 9 -25z"/>
<path d="M805 266 c-6 -17 -1 -66 7 -66 4 0 8 15 10 33 4 44 31 43 40 -3 l6
-35 -1 40 c-2 37 -4 40 -30 41 -16 1 -30 -4 -32 -10z"/>
<path d="M906 268 c-3 -7 -7 -32 -10 -56 l-6 -43 32 3 c38 3 55 38 19 38 -11
0 -23 5 -26 10 -3 6 3 10 14 10 12 0 21 3 22 8 0 4 2 15 4 25 2 12 -3 17 -21
17 -14 0 -26 -6 -28 -12z m34 -13 c0 -8 -7 -15 -15 -15 -8 0 -15 7 -15 15 0 8
7 15 15 15 8 0 15 -7 15 -15z m10 -65 c0 -5 -12 -10 -26 -10 -14 0 -23 4 -19
10 3 6 15 10 26 10 10 0 19 -4 19 -10z"/>
<path d="M1102 268 c-28 -28 -1 -75 38 -63 14 4 20 15 20 35 0 36 -33 53 -58
28z m43 -19 c8 -23 -7 -45 -24 -35 -12 8 -15 39 -4 49 12 12 22 7 28 -14z"/>
<path d="M1193 245 c2 -38 4 -40 35 -42 31 -1 32 0 32 38 0 47 -17 52 -22 7
-4 -45 -31 -44 -40 2 l-6 35 1 -40z"/>
<path d="M1284 268 c-4 -6 2 -19 15 -29 20 -17 13 -38 -9 -24 -5 3 -10 1 -10
-4 0 -6 9 -11 20 -11 27 0 38 29 17 45 -21 15 -22 29 -2 21 8 -3 15 -1 15 4 0
14 -37 12 -46 -2z"/>
<path d="M1362 268 c-26 -26 -6 -69 33 -67 19 0 19 1 -2 9 -31 12 -29 30 2 30
14 0 25 4 25 8 0 12 -22 32 -35 32 -6 0 -16 -5 -23 -12z m43 -8 c3 -5 -3 -10
-15 -10 -12 0 -18 5 -15 10 3 6 10 10 15 10 5 0 12 -4 15 -10z"/>
<path d="M60 262 c0 -4 7 -18 16 -30 12 -18 19 -20 35 -12 10 6 18 18 18 28
-1 16 -2 16 -6 0 -6 -24 -34 -23 -40 2 -5 19 -23 29 -23 12z"/>
<path d="M262 208 c-1 -10 -6 -18 -10 -18 -4 0 -8 -18 -7 -40 0 -40 11 -53 21
-26 3 7 4 33 1 57 -2 24 -4 36 -5 27z"/>
<path d="M500 125 c0 -13 58 -15 460 -15 402 0 460 2 460 15 0 13 -58 15 -460
15 -402 0 -460 -2 -460 -15z"/>
</g>
</svg>
